<svg width="624" height="305" viewBox="0 0 624 305" fill="none" xmlns="http://www.w3.org/2000/svg">
<g clip-path="url(#clip0)">
<path d="M527.2 50L564.9 149H488.8L527.2 50ZM159.6 269.5L168.2 291.2H150.8L159.6 269.5ZM177.6 300.6L161.9 263.9C161.4 262.8 160.7 262.2 159.6 262.2C158.5 262.2 157.8 262.8 157.3 263.9L141.6 300.6C141.4 301.2 141.2 301.7 141.2 302.2C141.2 303.4 142.3 304.6 143.6 304.6C144.7 304.6 145.5 304 145.9 303L149 295.6H170L173.3 303C173.8 304 174.5 304.6 175.7 304.6C176.9 304.6 178.1 303.5 178.1 302.2C178 301.7 177.9 301.2 177.6 300.6ZM114.5 304.5C115.9 304.5 116.9 303.4 116.9 302V264.8C116.9 263.4 115.8 262.3 114.5 262.3C113.1 262.3 112.1 263.4 112.1 264.8V302C112 303.4 113 304.5 114.5 304.5ZM72.8 304.5C80.6 304.5 86 299.8 86 293.1C86 288.2 83.3 285 76.4 281.7L71.9 279.5C66.6 277 65.3 275.5 65.3 272.6C65.3 269 68.2 266.6 72.6 266.6C75.8 266.6 78.6 267.9 80.9 270.4C81.4 270.9 82 271.2 82.6 271.2C83.8 271.2 84.9 270.1 84.9 269C84.9 268.4 84.7 267.8 84 267C81.1 263.8 77.3 262.1 72.7 262.1C65.6 262.1 60.4 266.6 60.4 272.8C60.4 277.4 63.1 280.7 69.6 283.8L74.2 286C79.5 288.5 81 290.2 81 293.2C81 297.2 77.7 300 72.7 300C68.7 300 65.3 298.1 62.5 294.7C62 294.1 61.4 293.8 60.6 293.8C59.4 293.8 58.3 294.8 58.3 296C58.3 296.6 58.5 297.1 58.9 297.5C62.2 301.9 67.5 304.5 72.8 304.5ZM18.4 269.5L27 291.2H9.6L18.4 269.5ZM36.4 300.6L20.7 263.9C20.2 262.8 19.5 262.2 18.4 262.2C17.3 262.2 16.6 262.8 16.1 263.9L0.4 300.6C0.2 301.2 0 301.7 0 302.2C0 303.4 1.1 304.6 2.4 304.6C3.5 304.6 4.3 304 4.7 303L7.8 295.6H28.8L32.1 303C32.6 304 33.3 304.6 34.5 304.6C35.7 304.6 36.9 303.5 36.9 302.2C36.8 301.7 36.7 301.2 36.4 300.6ZM255 304.5C262.8 304.5 268.2 299.8 268.2 293.1C268.2 288.2 265.5 285 258.6 281.7L254.1 279.5C248.8 277 247.5 275.5 247.5 272.6C247.5 269 250.4 266.6 254.8 266.6C258 266.6 260.8 267.9 263.1 270.4C263.6 270.9 264.2 271.2 264.8 271.2C266 271.2 267.1 270.1 267.1 269C267.1 268.4 266.9 267.8 266.2 267C263.3 263.8 259.5 262.1 254.9 262.1C247.8 262.1 242.6 266.6 242.6 272.8C242.6 277.4 245.3 280.7 251.8 283.8L256.4 286C261.7 288.5 263.2 290.2 263.2 293.2C263.2 297.2 259.9 300 254.9 300C250.9 300 247.5 298.1 244.7 294.7C244.2 294.1 243.6 293.8 242.8 293.8C241.6 293.8 240.5 294.8 240.5 296C240.5 296.6 240.7 297.1 241.1 297.5C244.4 301.9 249.7 304.5 255 304.5ZM307.4 282.4V267.3H316.8C321.9 267.3 325 270.2 325 274.9C325 279.6 321.9 282.5 316.8 282.5H307.4V282.4ZM305 304.5C306.4 304.5 307.4 303.4 307.4 302V286.7H317C324.8 286.7 330.1 281.9 330.1 274.7C330.1 267.6 324.8 262.8 317 262.8H305.1C303.6 262.8 302.6 263.9 302.6 265.3V302C302.6 303.4 303.6 304.5 305 304.5ZM365.3 303.9H388.1C389.3 303.9 390.3 302.9 390.3 301.7C390.3 300.5 389.3 299.5 388.1 299.5H367.9V284.1H382.4C383.6 284.1 384.6 283.1 384.6 281.9C384.6 280.7 383.6 279.7 382.4 279.7H367.9V267.2H387.3C388.5 267.2 389.5 266.3 389.5 265C389.5 263.8 388.5 262.8 387.3 262.8H365.3C364 262.8 363.1 263.8 363.1 265V301.5C363.1 302.9 364 303.9 365.3 303.9ZM440.9 304.5C447.3 304.5 453.2 301.8 456.8 297.2C457.5 296.3 457.7 295.8 457.7 295.2C457.7 294 456.6 293 455.4 293C454.6 293 453.9 293.3 453.4 294C450.2 298 446 300.1 440.9 300.1C431.6 300.1 424.6 292.9 424.6 283.4C424.6 273.9 431.6 266.7 440.9 266.7C445.9 266.7 450.1 268.7 453.4 272.8C454 273.5 454.6 273.8 455.4 273.8C456.6 273.8 457.7 272.8 457.7 271.6C457.7 271 457.5 270.4 456.8 269.6C453.1 265 447.2 262.3 440.9 262.3C428.9 262.3 419.6 271.6 419.6 283.5C419.6 295.2 428.9 304.5 440.9 304.5ZM494 304.5C495.4 304.5 496.4 303.4 496.4 302V264.8C496.4 263.4 495.3 262.3 494 262.3C492.6 262.3 491.6 263.4 491.6 264.8V302C491.6 303.4 492.6 304.5 494 304.5ZM547.5 269.5L556.1 291.2H538.7L547.5 269.5ZM565.5 300.6L549.8 263.9C549.3 262.8 548.6 262.2 547.5 262.2C546.4 262.2 545.7 262.8 545.2 263.9L529.5 300.6C529.3 301.2 529.1 301.7 529.1 302.2C529.1 303.4 530.2 304.6 531.5 304.6C532.6 304.6 533.4 304 533.8 303L536.9 295.6H557.9L561.2 303C561.7 304 562.4 304.6 563.6 304.6C564.8 304.6 566 303.5 566 302.2C566 301.7 565.8 301.2 565.5 300.6ZM601.3 303.9H621C622.3 303.9 623.2 302.9 623.2 301.7C623.2 300.5 622.3 299.5 621 299.5H603.6V264.7C603.6 263.3 602.5 262.2 601.2 262.2C599.8 262.2 598.8 263.3 598.8 264.7V301.3C598.7 302.7 599.8 303.9 601.3 303.9ZM434.3 107.6C434.2 108.1 434.1 106.9 433.9 106.6C434 106.7 434 106.3 434 106.2C434.1 106.3 434.2 106.4 434.3 106.6C434.2 104.9 434.2 103.9 434.3 103.2C434.9 102.8 434.6 98.4 434.1 95.4C434.1 95 434.1 94 433.8 92.8C433.6 88.5 432.2 84.2 430 78.2C427.9 72.5 425.6 67.1 423 62.1C419.9 56.4 416.5 51.4 412.8 46.7C409.1 42 405.1 37.7 400.7 33.5C398 31.1 395.1 28.6 392.1 26.3C389.1 24 386.1 22 383.4 20.6C379.8 18.2 376.1 16.1 372.4 14.2C368.6 12.3 364.7 10.5 360.4 8.70003C360.4 8.80003 359.6 8.50003 359.3 8.40003C357.5 7.70003 355.7 7.10003 353.7 6.40003C346.7 4.00003 339.2 2.20003 331.4 1.10003C323.7 2.63453e-05 315.8 -0.299974 308.1 0.300026C301 0.800026 294.2 2.10003 287.7 3.60003C286.3 4.10003 284.1 4.50003 282.3 5.10003C276.6 6.80003 270.5 9.50003 264.6 12.4C258.9 15.2 253.8 18.5 249 21.6C248.8 21.7 248.8 21.7 248.5 21.9C242.2 26.2 236.1 31.8 230.9 37.4C224.5 44.2 219 51.7 215.1 58.3C214.1 60.3 212.8 62.6 211.6 64.8C210.4 67.1 209.5 69.3 209 71.2C209.4 69.8 210.1 70.4 210.5 69.1C210.6 69.1 210.6 69.1 210.7 69C211 68.5 211 68.4 211 68.2C212 66.8 212.3 65.6 212.9 64.7C213.1 65 213.1 64.3 213.6 64C213.6 63.9 213.5 64 213.6 63.8C213.6 64.1 214.7 61.8 214.3 62.8C214.8 61.9 215 61.3 215.5 60.4C216 60.1 215.6 60.7 215.9 60.6C215.5 61 215.9 60.8 215.7 61.1C215.5 61.3 214.6 62.9 214.5 63.1C214.6 62.9 214.3 63.6 214.4 63.7C214.1 64.2 214.2 63.8 213.9 64.2C213.9 64.5 214.2 64 214.3 63.8C213.9 64.4 214.2 64.2 214 64.6C213.9 64.6 213.8 64.8 213.8 64.7C213.9 64.5 214 64.4 213.9 64.4C213.7 64.7 213.5 64.9 213.3 65.1C213.2 65.6 212.7 66.2 212.6 66.8C212.5 66.6 212.1 67.4 212 67.7C212 67.5 212 67.5 211.8 67.8C211.5 68.6 211.1 69.4 210.8 69.9C210.5 70.5 211.1 69.6 210.8 70.1C210.7 70.1 210.5 70.6 210.4 70.5C210.5 70.2 210.6 70.4 210.7 70C210.3 70.2 209.9 72.2 209.5 72.2C208.9 73.4 207.9 75.5 207.8 75.2C207.7 75.5 207.7 75.6 207.7 75.7C207.4 76 207 77.1 207 76.8C206.8 77.8 206.5 77.8 206.3 78.7C206.1 78.9 206.1 79 206 78.8C205.8 79.1 205.8 79.4 205.6 79.6C205.6 79.8 205.5 80.2 205.5 80.3C205.3 80.3 205 80.9 204.8 81.4C204.8 81.4 204.9 81.5 204.8 81.8C204.5 81.4 203.6 85.3 203.6 84.5C202.3 88.9 201.2 91.6 200.4 95.9C200.4 95.8 200.5 95.5 200.5 95.5C200.4 96.2 200.2 96.4 200 96.9C200.4 96.7 200.4 96.3 200.8 95.7C201.5 93.1 201.8 92.5 202.5 90.5C202.6 89.7 203.1 88.8 203.4 88.1C203.4 88.1 203.3 88 203.4 87.7C203.4 88.2 203.8 86.7 203.7 86.7C203.9 86.6 204.2 85.7 204.2 85.3C204.4 85.4 204.5 84.5 204.7 84.1C204.9 83.6 205.3 83 205.6 82.3C206 81.3 206.1 81.2 206.3 80.6C206.3 80.9 206.6 80.2 206.5 80.7C206.4 80.5 206.3 81 206.2 81.2C206.4 81.3 206.1 82.2 206.2 82.5C206.8 82.1 206.7 83.3 207.4 82.1C207.2 82.8 207.3 82.9 207.2 83.3C207.1 83.2 206.5 85.4 206.3 84.5C206.3 84.8 206.5 84.7 206.4 85.1C206.1 85.5 206.4 85.4 206.2 86C206 85.9 205.7 87.5 205.5 87.3C205.5 87.6 205.6 87.6 205.6 87.7C205.3 88.2 205.5 88 205.3 88.9C205.2 89 205.3 88.6 205.2 88.9C205.1 89.1 205.2 89.3 205.2 89.6C205.4 88.7 204.7 90.6 204.9 90.3V90.1C204.8 90.5 204.7 91.2 204.5 91.8C204.5 91.9 204.5 91.5 204.4 91.8C204.2 92.4 204.1 93.2 203.9 93.9C203.8 94.5 203.5 94.8 203.4 95.4C203.1 96.4 202.9 98 202.7 99.2C202.5 100 202.3 100.9 202.2 101.3C201.7 104.1 201.3 106.6 201.1 108.5C201.3 108.4 201.1 109.5 201.2 109.6C201.8 107.5 202.4 103.8 203.2 100.2C203.4 100.2 203.7 98.8 203.7 98.5C203.9 98.4 204.1 97.8 204.2 97.9C204.3 97.4 204.2 97 204.4 96.9C204.4 97.1 204.3 97.4 204.4 97.4C204.4 97.3 204.5 97.1 204.5 97.1C204.5 97.2 204.4 97.4 204.5 97.4C204.7 96.7 204.4 96.9 204.6 96.2C204.6 96.6 204.9 95.6 204.9 96.3C204.8 96.5 204.8 96.2 204.7 96.6C204.5 97.3 204.7 97.1 204.6 97.8C204.9 97.4 205 97.2 205.1 97.9C205.1 97.9 205 97.9 205 98.1C205.1 98.4 205 98.5 205.2 98.3C205.1 98.8 205.2 98.7 205.2 99C205 99 205.2 99.1 205.1 99.5C205 99.8 204.9 99.6 204.9 100C205.1 100.2 204.8 100.8 204.8 101.4C204.9 101.4 204.9 101.3 204.9 101.3C204.8 101.8 204.8 102.1 204.8 102.5C204.7 102.9 204.6 103.3 204.5 103.5C204.8 103.4 204.3 104.7 204.5 104.9C204.3 105.5 204.2 106.5 204 106.9C204.1 107.1 203.9 107.5 204.1 107.8C203.8 109.8 203.6 112.2 203.8 113C203.6 113.3 203.8 114.6 203.8 115.6C203.9 115.3 203.9 115.1 204.1 115.1C204.1 114.6 204.2 114.6 204.2 114.1C204.6 113.8 204.2 111.9 204.7 111.7C204.6 111.6 204.8 111.2 204.8 111C204.7 110.4 205 109.7 205.1 108.9C205.1 109.1 205.1 109.4 205.1 109.4C205.3 107.8 205.6 106.7 205.7 105.1C205.8 105 206.1 104.5 205.8 104.8C205.9 104.7 205.9 104.1 206 104.1C206.1 104.2 205.9 105.2 206 105.3C205.9 105.5 205.8 106.5 205.7 106.6C205.8 106.6 205.8 106.6 205.8 106.8C205.2 109.9 205.2 113 205.4 115.8C205.6 115.9 205.8 115.1 205.6 114.3C205.8 114.8 205.9 113.7 206 113.6C206 113.6 205.9 113.4 205.9 113.3C206 113.3 206.1 112.8 206.2 112.6C206.4 110 206.9 108.3 207.2 105.2C207.3 104.8 207.6 104.8 207.7 104.6C207.5 105.1 207.8 104.8 207.8 105.3C207.7 105.6 207.6 105.5 207.6 106C207.7 106 207.7 106 207.7 106.2C207.6 106.3 207.7 106.6 207.6 106.9C207.5 106.9 207.5 106.9 207.5 107.1C207.5 107.1 207.5 107.1 207.5 107.3C207.5 107.3 207.5 107.4 207.6 107.5C207.7 107 207.8 106.4 207.8 106.2C207.9 106.4 208 105.6 208.1 106.1C208.2 105.4 208.2 105.4 208.3 105.6C208.3 104.8 208.8 103.8 208.5 103.4C208.6 103.5 208.9 103.2 208.8 102.9C208.7 103.4 208.8 102.6 208.8 102.6C209 102.5 208.9 101.8 209.1 101.3C209.3 101.7 209.6 100.3 209.3 101C209.4 100.1 209.5 100.7 209.6 100.2C209.7 99.4 209.8 99 210.1 98.3C210 98.3 210.2 97.6 210.2 97.3C210.7 96.2 211.3 94.3 211.9 92.4C212.5 90.4 213.2 88.4 213.8 86.8C214.3 85.4 215.1 83.3 216 81.3C216 80.8 216.5 79.7 216.7 79.5C216.9 78.2 217.9 76.9 218.1 75.8C218.4 75.3 218.5 74.9 218.8 74.8C218.7 74.5 219.3 73.8 219.1 73.5C219.1 73.8 219.9 71.8 219.7 72.7C219.9 72.1 219.9 72 220.3 71.3C220.2 71.3 220.1 71.2 220.3 70.9C221.2 70.1 221.3 68.7 222.1 67.8C222.6 66.8 222.6 66.6 222.8 66.1C222.9 66.1 222.9 66.2 223 66C223.1 65.6 223.3 65.6 224 64.5C224 64.4 223.8 64.5 223.9 64.3C224.1 64.2 224.2 63.8 224.3 63.6C224.4 63.6 224.5 63.5 224.4 63.7C224.6 63.1 225.1 62.8 225.3 62.3C224.8 62.8 226 60.8 226.3 60.8C226.4 60.2 226.7 60.1 227 59.3C227.3 59.1 227.6 58.7 228.2 57.9C228 57.9 228.5 57.2 228.9 56.8C228.8 57.1 230.1 55.4 230 55.3C230.5 54.8 230.7 54.5 231.3 53.8C231.1 53.7 231.5 53.5 231.4 53.3C231.5 53.4 231.7 53 231.7 52.9C231.8 53 232.3 52.3 232.5 52.3C232.6 52 233.5 51 232.9 51.6C233.1 51.3 233.2 51.2 233.5 50.8C233.9 50.7 234.1 50.3 234.5 49.9C234.5 49.9 234.4 49.9 234.3 49.9C234.8 49.5 234.8 49.1 235.4 48.5C235.7 48.4 236.2 47.9 236.6 47.4C236.5 47.6 236.4 47.5 236.5 47.3C237 46.9 237.3 46.5 237.5 46.5C237.6 46.1 237.8 46.1 238.2 45.8C238 45.8 238.6 45.2 238.6 45.1C239 45 239.7 44.2 240 43.9C239.8 44 240.3 43.4 240.5 43.2C241 42.9 241.5 42.4 242 42.1C242 41.9 242.2 41.7 242.3 41.5C242.5 41.6 242.3 41.4 242.7 41.2C243.6 40.7 243.7 40.4 244.6 39.6C244.9 39.6 246 38.6 246 39C245.1 39.6 244.2 40.9 243.3 41.6C242.9 42 242.8 42 242.4 42.3C241.9 42.9 241.9 43.8 243.2 42.9C244 42.1 244.6 41.7 245.1 41.4C246.1 40.3 246.7 40.2 247.6 39.6C247.7 39.3 249.2 38.3 248.9 38.6C249.5 38.2 249.9 37.8 250.1 37.5C250 37.8 250.8 37 250.8 37.1C250.2 37.6 250.4 37.6 249.9 38C250.3 37.9 249.9 38.3 249.7 38.5C250.7 38 250.8 37.8 252.2 36.7C252.2 36.8 252.3 36.7 252.5 36.7C252.4 36.8 252.4 36.9 252.3 37C251.8 37.3 252 37 251.6 37.3C251.2 37.8 251 38.1 251 38.3L250.8 38.5V38.6C250.4 38.9 250.2 39.1 250 39.1C250 39.3 249.6 39.9 249.2 40.4C249 40.6 248.7 40.8 248.6 40.8C248.4 41.2 248 41.6 247.9 41.9C247.1 42.5 246.7 43.1 246.3 43.8C245.5 44.4 245.1 45.1 244.8 45.7C244.2 46 243.7 46.8 243.4 47.4C243 47.8 242.9 47.8 242.5 48.2C242.1 48.8 241.7 49.5 241.2 49.9C240.8 50.5 240.5 51.4 239.9 51.6C239.7 52 239 53.1 238.6 53.5C238 54.8 237.1 56.2 236.2 57.6C236.1 57.9 235.8 59.2 236.1 58.7C236.2 58.8 236 59 236 59.2C235.9 59.3 235.7 59.3 235.4 59.7C235.1 60.4 235.4 60.4 235.5 60.6C235.8 60.1 236 59.7 236.1 59C237.7 57.1 240.2 53 242.4 50.3C243 49.7 243.4 49.4 244.1 48.4C244.4 48.1 244.6 48 244.9 47.8C245.3 47 246.1 46.4 246.4 46.5C246.7 46.2 246.9 45.9 247 45.7C247.7 45.1 248.1 45.4 247.8 45.8C247.9 45.8 248.2 45.4 248.3 45.3C248.5 45.3 248.1 45.6 248.3 45.6C248.5 45.4 248.6 45.1 248.8 45.1C249 44.7 248.9 44.7 249 44.4C249.3 44.1 249.4 44.2 249.6 43.9C249.4 44.6 250.9 43.1 250.8 42.8C251.2 42.7 251.6 42.2 251.8 42.1C252.2 41.5 252.7 41 253.2 40.9C253.4 40.6 253.6 40.4 253.8 40.3C253.9 39.9 255 39.4 255.9 38.5C256.8 38.3 257.6 36.9 258.7 36.6C259.1 36.4 258.8 36.4 259.1 36.2C261.1 34.9 262.9 33.6 264.9 32.4V32.5C265.2 32.3 266.2 31.7 266.1 31.7C265.9 31.8 265.7 31.9 265.6 32L266.2 31.6C266.4 31.6 266.5 31.7 266.4 31.8C265.9 32 266.1 31.9 266 32C265.8 32.1 265.8 32 265.5 32.1C265.1 32.6 264.3 33.2 264.4 33.5C265 33.3 265.8 33.4 266.2 33.6C267.2 33.1 268.4 32.8 269.4 32.5C269.5 32.8 268.5 33.3 268.9 33.5C269.5 33.2 269.4 33.7 270 33.4C270.2 33.3 270.7 32.9 271 32.6C271.2 32.6 271.7 32.8 271.4 33.1C274.8 31.6 278.8 30 282.9 28.6C282.9 28.7 283.7 28.3 283.5 28.5C283.8 28.4 284.1 28.2 284.2 28.3C282.9 29 281 29.7 281 30.2C281 29.9 280.6 30.5 281 30.3C281.4 30.2 282.6 29.9 283.2 29.5C284.1 29.4 284.7 29.5 285.4 29.1C285.4 29.3 286 29.1 286 29.2C287.9 28.3 288.2 29.1 287 29.6C286.2 29.7 286.3 29.9 285.8 30C287.5 29.8 289.9 28.9 291.3 29C293.4 28.6 295 28.3 295.8 28.6C296.5 28.5 296.7 28.4 297.5 28.3C298 28.3 298.4 28.3 299.1 28.3C299.6 27.9 300.6 28.1 301.4 28C301.6 27.9 302.1 27.8 302.1 27.7C302.5 27.8 303.2 27.7 303.8 27.7C303.8 27.4 304.6 27.5 305.2 27.4C305.2 27.5 305.3 27.5 305.3 27.5C304.6 27.9 303 27.7 303.1 28.2C303.1 28.1 303.2 28.3 303 28.3C303.6 28.3 303.5 28.3 303.9 28.3C304 28.1 304 28.3 304.2 28.3C304.2 28.2 304.8 28.2 304.9 28C305.6 28 305.9 28.1 306.5 28.1C306.6 27.9 307.2 27.9 307.3 27.8C307.3 28 307.5 27.9 307.9 27.9C307.9 28 307.7 28 307.8 28C308.3 27.9 308.3 28 308.7 28.1C308.9 27.8 310.5 27.8 310.3 27.9C311.3 27.9 311.2 27.9 311.7 27.7C313 27.8 313.3 27.9 314.1 27.6C315 27.9 315.9 27.7 316.7 27.6C317.3 27.8 317.9 27.8 318.7 27.8C319 27.7 318.5 27.7 319 27.7C319.1 27.9 319.6 27.8 319.8 28C320 27.9 320.9 28.1 320.2 27.9L320.9 28C321 27.9 320.7 27.9 320.9 27.9C321.1 28 321.6 27.9 321.7 28C321.5 28 321.5 28 321.4 28.1C321.8 28.2 322.8 28.5 322.7 28.3C322.7 28.4 322.3 28.3 322.3 28.3C323.2 28.4 323.1 28.1 323 28C323.2 28.2 323.5 28 323.7 28.2C323.5 28.2 323.4 28.2 323.4 28.2C323.8 28.3 323.9 28.4 324.1 28.5C324.9 28.6 325.3 28.5 325.8 28.5C325.5 28.6 326.1 28.7 326.2 28.8C326.9 29 327.3 28.8 328.3 29C328.3 29.1 328.5 29.2 328.8 29.3C329.7 29.3 330.4 29.5 331.3 29.8C331.7 29.7 332.8 29.9 333.1 30.2C333.7 30.3 333.9 30.2 334.8 30.5C334.9 30.7 335.5 30.9 336 31C336.2 31 336.1 30.9 336.3 30.9C336.9 31.1 337.6 31.4 338 31.6C338.1 31.5 338.5 31.6 338.6 31.6C339 31.8 339.4 32.1 339.7 32C339.7 32.1 339.6 32.1 339.8 32.2C339.9 32.2 340.1 32.3 340.2 32.3C341.2 32.2 341 32.6 342.2 33C342.5 33 342.9 33.1 343.3 33.2C343 33.4 344 33.4 343.6 33.5C343.9 33.6 344.1 33.7 344.3 33.8C344.5 33.8 345.2 33.8 345.7 34.2C345.5 34.1 345.3 34 345.3 34.1C345.7 34.3 346.1 34.5 346.3 34.7C346.4 34.5 346.9 34.8 347.3 34.9C348 35.3 348.6 35.6 349.3 35.7C350.2 36.3 350.8 36.5 351.7 36.7C352.3 37.2 352.9 37.3 353.7 37.6C354.3 38.2 355.1 38.2 355.8 38.6C356 38.7 356.2 39 356.4 39.1C356.8 39.3 358.4 39.8 358.4 40.2C359 40.5 360.3 41 360.7 41.7C361.1 41.9 361.3 41.9 361.8 42.2C362.1 42.4 362.2 42.6 362.3 42.8C362.8 43.2 363.2 43.2 364.2 43.9C364.1 44 364.1 44 364.3 44.2C365 44.6 365.9 45 366.1 45.5C366.7 46 367 46.1 367.3 46.3C367.7 46.7 367.9 47 368.2 47.3C368.6 47.5 369.1 47.8 369.6 48.1C369.5 48.2 369.5 48.2 369.6 48.3C369.9 48.5 370.1 48.8 370.1 48.8C370 48.7 370.7 49.2 371.2 49.5C371.4 49.7 371.3 49.8 371.4 49.9C372 50.5 372.2 50.4 372.7 50.8C373.1 51.2 373.2 51.5 373.5 51.8C373.8 51.9 374 52.1 374.4 52.3C374.8 53 375.5 53.7 375.9 53.8C376.6 54.8 376.9 55.1 377.8 55.8C377.4 55.7 378.6 56.7 377.9 56.3C378.5 56.9 378.8 57.2 379.2 57.4C379.2 58.1 380 58.5 380.9 59.5C380.8 59.8 381.5 60.5 381.9 60.7C382.5 61.4 382.2 61.4 382.8 62.2C383 62.3 383.3 62.6 383.7 63.1C383.5 63.2 383.9 63.6 384 63.9C384.3 64 384.4 64.2 384.8 64.7C385 65.5 385.7 66 386.2 66.7C385.9 66.6 386.5 67.2 386.3 67.2C386.7 67.8 386.9 67.9 387.2 68.3C387.4 68.6 387.6 69 387.6 69.3C386 66.8 384.5 64.7 382.8 62.5C381.1 60.4 379.3 58.2 377 55.9C376.8 55.6 376.6 55.3 376.3 55C376 54.7 375.7 54.6 375.5 54.4C375 53.6 374.1 53 373.4 52.4L373.5 52.3C373 51.8 372.7 51.6 372.4 51.4C372.3 51.4 372.5 51.6 372.4 51.7C371.8 51.2 371.3 50.7 371.7 50.8C371.6 50.6 371.4 50.4 371.1 50.2C370.8 50.2 371.2 50.4 370.9 50.4C370.5 50 370.4 50 370.1 49.8C370.5 50.4 370.5 50.3 370.9 50.9C370.3 50.3 370 50.4 369.5 49.6C369.1 49.4 368.5 48.8 368.3 48.8C368.5 49.1 368.9 49.3 368.6 49.3C369 49.4 369.5 49.9 370.2 50.5C370.2 50.6 370.1 50.6 370.2 50.7C370.8 51 371.4 51.8 371.5 51.4C371.2 51.1 371 51.1 371 50.9C371.4 51.3 371.4 51.1 371.7 51.4C371.7 51.6 372.2 51.9 372.4 52.3C372 52 371.9 51.9 371.6 51.7C371.9 52.5 373.5 53.2 373.7 54C373.7 53.7 374.5 54.7 375.1 55C374.8 54.8 375.2 55.2 375.1 55.2C375.6 55.8 376.3 56.4 376.7 56.6C376.5 56.5 376.7 56.7 376.5 56.6C376.9 57.1 376.9 57.2 377.5 57.8C377.6 57.8 378.1 58 378.2 58.3C377.9 57.9 378.2 58.6 378.3 58.8C378.4 58.8 378.2 58.6 378.4 58.7C378.3 58.7 378.6 59 378.6 59.1C378.1 58.6 378.3 59 377.9 58.7C377.7 58.5 377.3 57.9 377.1 57.7C377.2 57.8 377.2 57.8 377.1 57.7C377 57.5 377.2 57.5 377.1 57.3C376.3 56.3 376.9 57.5 376.7 56.9C376.9 57.2 376.9 57.3 377 57.4C376 56.5 373.6 53.9 371.7 52.1C371.2 51.8 371.7 52.5 371.3 52.3C371.5 52.2 371.1 51.9 371.4 52C371.1 51.7 371.1 51.6 371 51.4C370.4 51.1 369.2 49.7 367.9 48.9C367.7 48.7 367.6 48.5 367.5 48.3C367.4 48.2 366 47.5 365.8 47C364.9 46.4 365.1 46.5 364.2 46C363.9 45.4 363.1 45 362.5 44.8C362.2 44.2 360.6 43.7 360.2 43.1C360.1 42.9 359.8 43 359.5 42.6C358.9 42.5 357.7 41.7 357.5 41.4C357.4 41.5 357.1 41.3 356.8 41.2C356.9 41.1 355.5 40.3 354.7 40C354.6 39.8 354.3 39.8 354.4 39.7C353.8 39.6 353.1 39 352.5 38.8C351.5 38 349.1 37.3 348.3 36.6C346.8 36.1 346.2 35.8 344.9 35.3C344.9 35.5 345.3 35.5 344.8 35.5C345 35.6 345.1 35.7 345.2 35.7C344.7 35.3 345.1 35.8 344.4 35.5C344.7 35.5 344.1 35.2 344.7 35.4C344 35.1 344.6 35.3 344.6 35.2C344.2 35.1 344 34.9 343.4 34.7C343.1 34.7 342.9 34.8 342.6 34.8C342.6 34.7 341.9 34.5 342 34.4C342.2 34.5 342.4 34.5 342.4 34.5C342.2 34.4 341.7 34.3 341.8 34.2C342.1 34.3 342.3 34.4 342.2 34.2L340.9 33.7C340.7 33.8 341 33.9 341.1 34C340.8 34 341.2 34.1 340.7 33.9C340.5 34 341.1 34.1 340.9 34.2C340.7 34 340.1 33.9 339.9 33.7C340.1 33.8 340.3 33.8 340.3 33.8C339.8 33.6 340 33.5 339.8 33.4C339.3 33.3 338.8 33.1 338.8 33.3C338.6 33 338.8 33.2 338.4 33.2C337.8 32.9 337.6 32.7 337.3 32.8C337.4 32.7 336.9 32.6 336.6 32.6C336.7 32.7 336.8 32.7 336.8 32.8C336.6 32.7 336.2 32.6 336.1 32.7C336.4 32.8 336.6 32.7 336.6 32.9C336.1 32.9 335.9 32.7 335.5 32.5C335.7 32.5 335.9 32.6 335.9 32.6C335.5 32.5 335.6 32.4 335.3 32.3C335 32.3 335.2 32.3 334.9 32.2C334.8 32.3 334.2 32.2 333.9 32.2C333.5 32.1 333.3 31.9 332.7 31.8C332.4 31.8 332.9 32 332.5 31.9C332.5 31.8 332.4 31.8 332.3 31.7C332.4 31.9 331.9 31.5 331.7 31.7L332.1 31.9C331.6 31.8 331.5 32 331.6 32.1C331.6 32 331.8 32 331.9 32.1C331.8 32.1 331.7 32.1 331.5 32.1C331.4 32.1 331.3 32 331.2 32C331.3 31.9 331.4 31.9 331.5 31.8C330.9 31.6 331.2 31.6 331.5 31.6C331.2 31.5 331.1 31.4 330.7 31.4C330.3 31.4 330.9 31.6 330.5 31.5C330.7 31.4 330.2 31.4 330 31.3C329.6 31.3 329.8 31.6 329.4 31.5C329.1 31.6 329.9 31.8 329.5 31.7C329.5 31.6 329 31.8 328.9 31.6C329.4 31.5 328.6 31.5 329.2 31.4C328.6 31.3 329 31.3 328.8 31.1C328.3 31 327.8 31 327.4 31C327.2 31.2 327.5 31.3 326.9 31.2C327.4 31.2 326.1 31 326.7 30.9C325.7 30.6 326.3 30.9 325.3 30.7C325.2 30.9 325.6 30.9 325 30.8C324.8 30.9 325.2 30.9 325.2 31L324.5 30.9C324.5 30.8 324.2 30.7 324.3 30.6C323.5 30.5 322.9 30.5 322.6 30.6C322.3 30.5 322.1 30.4 321.8 30.4C320.2 30.5 319.3 30.1 318.3 30.3C317.3 30.2 316.6 30.1 316.1 30.3C314.4 30.1 311.5 30.5 310 30.2C309.6 30.2 309.8 30.3 309.2 30.3C309.6 30.2 309 30.3 308.9 30.2C309.5 30.2 308.8 30.1 308.8 30C308.3 30.1 307.7 29.9 307.1 30.1C307.1 30 306.9 30 306.8 30C306.4 30.1 306.1 30 305.7 30C305.7 30 305.7 30.1 305.6 30.1C303.8 30.1 301.3 30.3 298.9 30.6C296.4 30.9 294.1 31.3 292.5 31.4C290.9 31.5 288.6 32.1 287.2 32.2C284.5 32.9 282.2 33.4 280 34C277.8 34.6 275.6 35.3 273.2 36.4C273 36.5 273.1 36.3 272.8 36.5C272.8 36.5 272.7 36.6 272.6 36.7C272.7 36.9 272.8 36.9 273.1 36.9C273.1 36.9 273.2 36.8 273.3 36.7C274.4 36.7 275.9 36.2 277.2 36C277.2 35.9 277.7 35.7 278 35.6C278.3 35.6 278.8 35.4 279 35.5C280.5 34.8 280.1 35.6 281.6 34.9C281.9 35.2 283.7 34.3 284.1 34.5C283.5 34.9 283.4 35.2 282.9 35.6C278.9 37 274.1 39.1 271 40.3C270.3 40.7 269.9 40.9 269.6 41.1C269.5 41 269.1 41.3 269.1 41.3C268.4 41.8 267.7 42.3 267 42.5C266.4 43 266 43.4 265.1 43.9C265.3 43.9 264.8 44.2 264.8 44.3C265.7 44.1 267.3 43.4 268.2 43L268.3 43.1C267.4 43.8 267 44.4 265.9 45.2C263.8 46.7 261.3 48.2 259.7 49.8C258.1 51.4 257.1 52.8 255.4 54.5C253.3 56.6 251.5 59 249.6 61C248.8 62.1 248 63.3 246.9 64.7C245 67.6 243.4 70.2 241.7 73.5C241.7 74 241.3 74.5 240.9 75.3C240.9 75.5 241 75.5 240.9 75.7C240.1 77.1 240.4 77.5 239.6 78.9C239.6 79.1 239.5 79.6 239.8 79.4C239.8 79.6 239.5 80 239.4 80.4C239.5 80.3 239.6 80.1 239.6 80.1C239.4 80.6 239.5 80.4 239.6 80.4C239.2 81.4 238.8 83.2 239.1 83.3C239 82.9 239.7 82.8 239.8 82.1C239.7 82.3 239.9 81.8 240 81.5C240.3 81.4 240.4 81 240.6 80.7C240.6 80.4 240.7 80.2 240.8 79.9C241.1 79.5 241.4 79.1 241.5 79.3C241.6 79 241.5 79.2 241.6 78.8C241.5 78.9 241.4 79.1 241.4 79.1C241.6 78.7 241.5 78.4 241.9 78C241.7 78.5 242.6 77.7 242.8 77.3C242.6 77.2 243.5 76.1 243.4 75.9C243.7 75.6 244.1 74.4 244.7 73.9C245 72.9 246 71.7 246.4 70.9C246.7 70.9 246.8 70.6 247 70.7C246.6 71.1 246.8 71.1 246.6 71.5C246.5 71.5 246.4 71.8 246 72.3C246.1 72.2 245.6 73.4 245.8 73.1C245 74.1 244.7 75.2 243.8 76.2C243.8 76.4 244 76.4 243.8 76.6C243.6 76.8 243.6 77.3 243.3 77.3C242.9 78.2 243 78.5 243 79C242.8 79.1 242.8 79.4 242.6 79.6C242.8 79.6 242.4 80.3 242.6 80.4C242.4 80.8 242.4 81 242.1 81.4C242.2 81.5 242 81.9 242.1 82.1C242.2 81.9 242.3 82.1 242.4 82C242.3 82.2 242.2 82.3 242.1 82.4C242.3 82.4 242.6 81.9 242.7 82.1C242.8 81.9 242.8 81.8 242.9 81.8C242.8 82.2 242.9 81.9 243.1 81.9C242.3 83.4 242.5 85.6 241.7 87.1C241.9 87.3 241.7 87.6 241.9 87.8C242 87.4 242.1 87.6 242.2 87.4C242.2 87.4 242.1 87.3 242.2 87.1C242.3 87 242.4 87 242.4 87.2C242.6 86.7 242.3 86.8 242.4 86.5C242.7 86.2 242.8 85.9 243.1 85.6C243.1 85.9 243 86.5 243.3 86.2C243 86.8 243.1 86.9 242.8 87.4C243 87.9 243.2 87.7 243.7 87C243.7 86.9 243.6 86.9 243.7 86.6C243.8 86.7 244 86.4 244.1 86.3C244.5 85.2 244.8 84.1 245.2 83.5C245 83.5 245.6 82.6 245.2 83.1C245.4 82.5 245.6 82.3 245.9 81.7C245.8 81.4 246.2 81 246.3 80.7C246.7 80.5 246.9 79.9 247.1 79.2C247.3 79.3 248.1 77.5 247.9 78.2C248.1 77.9 248.1 77.5 248.3 77.4C248.4 77.4 248.3 77.6 248.5 77.5C248.2 77.9 248.2 78.2 248 78.3C247.9 79.6 246.6 81.7 246.5 83.1C246.4 83.1 246.4 83 246.3 83.2C246.5 83.3 246.5 83.3 246.3 83.6C246.3 83.8 246.6 83.4 246.4 83.7C246.3 83.8 246.4 83.8 246.3 83.9C246.2 83.9 246.3 83.7 246.2 83.9C246.3 83.9 246.1 84.2 246.1 84.3C246.3 84 246.4 84 246.5 83.8C246.4 83.8 246.4 83.7 246.5 83.5C246.5 83.5 246.6 83.6 246.7 83.4C246.8 83.2 246.6 83.2 246.7 82.8V82.9C247.1 82.2 247.7 80.3 248.1 80.3C248.1 80.3 248 80.6 248 80.5C248.1 80.5 248.1 80.2 248.2 80.2C248.3 80.2 248.2 80.5 248.5 80.2C248.1 80.7 248.5 81.2 248.6 81.1C248.6 81.1 249.1 80.8 249.2 80.9C249.2 80.4 249.8 80.1 249.9 79.6C250 79.6 250.1 79.4 250.2 79.5C250.2 79.8 250.1 79.9 250.2 79.9C250.1 80.1 249.9 80.4 249.9 80.4C250.2 79.8 250.1 80.4 250.2 80.2L250.3 79.8C250.4 79.9 250.5 79.7 250.5 79.7C250.4 79.9 250.2 80 250.4 80C250.9 79.1 250.9 79 250.9 78.6C251 78.5 251 78.6 251.2 78.3C251.1 78.2 251.1 78.2 251.2 78C251.2 78.1 251.5 77.9 251.4 77.9C251.3 78.2 251.3 77.7 251.1 78C251.1 78 251 78.1 251 78.2C250.9 78.5 251 78.3 251 78.5C250.6 78.8 251 78.4 251 78.1C251.2 78 251.6 77.6 251.7 77.7C251.9 77.1 252.4 76.4 252.7 75.9C252.8 75.4 252.8 75.2 253.2 74.9C253.2 74.9 253.1 74.8 253.2 74.7C253.3 74.8 253.3 74.6 253.5 74.4C253.5 74.2 253.6 74.2 253.6 73.9L253.9 73.4C254.2 73.5 253.9 73.1 254.4 73C254.4 72.6 255.3 71.6 255.3 71.7C255.5 71.3 255.6 71.1 255.9 70.7C256 70.7 256.2 70.6 256.4 70.6C256.3 70.8 256.4 70.8 256.1 71.1C256.2 71.1 256.4 71.4 256 71.5C256.1 71.4 256.1 71.2 256 71.4C255.9 71.7 255.8 71.8 255.6 72.1C255.7 72.3 255.6 72.4 255.9 72.5C256 72.4 256.4 71.9 256.7 71.6C257 71.1 257.6 70.2 258.2 69.6H258.3C258.2 69.7 258.2 69.7 258 69.8C258.1 70.1 257.6 70.7 257.3 71.2C259.8 67.4 262.7 63.9 265.9 60.8C265.9 60.8 265.9 60.7 266 60.6C266 60.6 266 60.6 266.1 60.6C266.6 60.1 267 59.7 267.5 59.3C280 47.5 296.9 40.2 315.5 40.2C354.1 40.2 385.4 71.5 385.4 110.1C385.4 148.7 354.1 180 315.5 180C306.2 180 297.3 178.2 289.2 174.9C288.8 175 288.8 175.3 289.2 175.6C289.7 175.9 290.8 176.1 291.2 176.5C288.9 175.9 285.7 174.3 284.7 174.5C283.3 174.1 282.3 174.7 283.3 175.7C284.3 176.4 285.4 177.1 286.1 177.8C285.6 177.8 285.1 177.7 284.4 177.5C286.3 178.5 287.8 178.9 289.4 179.8C289.9 180.6 292.2 180.8 293 181.5C293 181.4 293.2 181.6 293.5 181.5C293.8 181.7 293.8 181.9 294.4 182.1C294.2 182.1 294.4 182.3 294.7 182.4C294.7 182.3 294.8 182.3 294.9 182.3C294.7 182.7 295.3 183.1 295 183.3C296.2 184.5 298.7 184.7 299.2 185.8C299.3 186 299.5 186.2 300 186.4C300.2 186.4 300.4 186.4 300.6 186.4C301.3 186.8 302.8 186.7 303.2 187.3C303.1 187.4 302.9 187.4 302.7 187.4C300 187 297.9 186.5 295.5 186.1C295.2 186.3 294.7 186.3 293.9 186.2C293.9 186.8 292.8 186.3 292.6 186.8C292.4 187.5 294.9 188.4 296.2 189C295.9 188.9 296.3 189.1 296.2 189.2C295.7 189.2 295.3 189.2 294.9 189.1C295.8 189.9 298.9 190.4 299.9 191.1C299.9 191.3 299.4 191.3 299.1 191.3C300.7 191.9 302.7 192.3 303.6 192.9C304.7 193.2 306.2 193.4 307.2 193.6C307.2 193.7 307.4 193.7 307.4 193.7C307.2 193.7 307.1 193.8 307.3 193.9C308.4 193.7 309.1 194.3 310.3 194.2C310.2 194.5 311.1 194.4 310.8 194.7C310 194.6 308.2 194.6 307.6 194.4C302.6 193.9 297.2 192.8 292.3 191.1C287.4 189.5 283 187.4 279.8 185.4C277.8 184.4 275.9 183 273.9 181.6C271.7 180.1 269.4 178.4 267.8 176.7C267.1 176.2 266.4 175.6 266.3 175.3C265.6 174.9 265.3 174.4 264.9 174C263.9 173.3 262.8 171.9 261.6 170.7C261.2 170.2 261.3 169.8 260.7 169.4C260.8 169.6 260 168.7 259.9 168.5C260 168.6 260.3 169 260.2 168.8C260.1 168.7 259.9 168.5 259.8 168.4C259.9 168.5 260 168.4 259.8 168.2C259 167.7 258.7 167 258.5 166.5C258.4 166.5 258 166.4 257.9 166.1C258.3 166.7 258.1 165.7 258.2 165.9C258.2 165.8 257.9 165.5 257.8 165.3C257.7 165.4 257.7 165.3 257.5 165.2C257.5 165.2 257.6 165.3 257.7 165.2C257 164.5 256.7 164.4 256.1 163.6C256 163.7 256 163.6 255.9 163.4L255.8 163.5C254.9 162.6 254.4 162.3 253.8 161.6C253.7 161.6 253.8 161.8 253.8 161.9C253.5 161.6 253.2 161.1 253.4 161.6C253.1 161.1 253.1 161.4 252.9 161C252.5 160.8 251.6 160.3 251.3 159.8C251.1 159.8 251.2 160.3 250.9 159.9C250.9 159.8 251.1 159.8 251 159.7C250.9 159.7 250.8 159.4 250.7 159.5C250.7 159.6 250.8 159.7 250.8 159.7L250.4 159.1C250.2 159 250.3 159.3 250.1 159.2C250 158.8 249.7 158.8 249.7 158.8C249.6 158.5 249.3 158.4 249.1 158L248.9 158.1C248.5 157.5 248.1 157.5 247.9 157C248 157.3 247.6 156.8 247.7 157.1C247.4 156.7 247.4 156.9 247.2 156.4C247.1 156.5 246.9 156.3 246.7 156C246.6 156 246.7 156.1 246.7 156.2C246.2 155.4 245.8 155.5 245.5 154.9C244.7 154.6 243.8 153.4 243 152.9C243 152.9 243.1 152.9 243.1 152.7C243 152.8 242.8 152.7 242.8 152.4C242.5 152.4 242.2 151.6 242.1 151.9C242 151.6 241.8 151.6 241.9 151.3C241.7 151.5 241.3 150.6 241.2 150.9C241.1 150.5 240.8 150.6 240.6 149.9C240.5 149.9 240.5 150 240.4 149.9C240.5 149.7 240.2 149.4 240.3 149.8C240 149.1 239.7 148.7 239.3 148.6C239.4 149.1 239.4 149.3 239.7 150C239.3 150.2 239 149.9 239 150.3C238.7 150 238.4 149.6 238.4 150C238.6 150 238.6 150.6 238.8 151C239.2 151.4 239.3 151.7 239.7 151.9C240.2 152.8 240.5 153 241 153.6C241 153.9 241.2 154 241.4 154.3C241.3 154.3 241.2 154.2 241.4 154.5C241.5 154.3 242 155.8 242.3 155.8C242 155.7 242.6 156.5 242.3 156.4C242.4 156.7 242.6 156.8 242.7 156.9C242.7 157 242.5 156.9 242.6 157.1C242.7 157 242.8 157 242.9 157.2C242.8 157.2 243 157.5 242.9 157.5C242.8 157.3 242.7 157.2 242.8 157.4C242.8 157.3 243 157.8 243 157.9C242.9 158 242.5 157.9 242.7 158.2C242.2 158.2 241.8 157 241.2 156.6C241.3 156.5 241.1 156.4 241 156.1C240.9 156.1 241 156.3 240.9 156.2C240.9 156.1 240.8 156.1 240.7 155.9C240.9 156 240.2 155.1 240.1 154.6C240 154.4 240 154.6 239.9 154.4C240 154.2 239.4 153.1 239.1 152.9C239 152.3 238.9 152.5 238.6 152.1C238.8 152.1 238.4 151.6 238.4 151.6C238.4 151.4 238.3 151.1 238.1 150.9C238.3 150.9 237.8 150.3 238.1 150.2C237.6 149.2 237.5 149.1 236.9 148C236.8 148 236.8 148.1 236.7 147.8C236.5 147.7 236.8 148.2 236.6 148.1C236.4 147.7 236.4 148.1 236.2 147.7C236.2 148 236.6 148.5 236.3 148.2C236.4 148.6 236.5 148.5 236.6 148.9C236.4 149 237.2 150.2 237.5 151.3C237.6 151.6 237.7 151.3 237.9 151.7C238 152 237.7 151.7 238 152.1C238.1 152.1 238.3 152.5 238.6 153C238.8 153.1 238.6 152.8 238.6 152.7C238.8 153 238.7 153 238.8 153.2L238.7 153.1C238.9 153.5 239.1 153.8 239.3 154.1C239.2 154.2 239.5 154.9 239.9 155.4C239.5 155.1 240.2 156 240.1 156.2C240 156.4 239.4 155.8 239.4 156C239.1 155.3 238.8 155.1 238.5 154.8C238.9 155.4 238.7 155.4 238.7 155.6C239 155.8 238.7 155.7 238.8 155.9C238.9 155.9 239 156.1 239.1 156.2C238.8 155.9 239.3 156.8 238.9 156.3C239.1 156.7 238.9 156.4 239 156.7C238.9 156.7 238.6 156.4 238.7 156.7C238.8 156.7 238.8 156.7 238.9 156.9C238.8 156.8 238.6 156.6 238.5 156.8C238.8 157.3 238.5 157.2 238.8 157.7C239.6 158.5 241.2 160.2 241.3 161.2C242.8 163 242.1 163.5 241.4 162.9C241.7 163.1 241.1 162.6 241 162.5L241.2 162.7C240.8 162.2 240.6 161.9 239.9 161.1C239.9 160.8 239.3 160 239.1 159.8C239.2 159.9 239.3 159.9 239.1 159.6C239 159.6 238.8 159 238.7 159.2C239.5 160.4 239.9 161.9 240.7 163.1C240.9 163.4 241.4 164 241.5 164.4C241.6 164.3 241.8 164.8 242 164.9C241.6 164.7 242.5 165.6 242.3 165.7C242.4 165.6 242.6 165.8 242.8 165.9C243.4 166.8 244.1 167.7 244.5 167.9C244.6 168.2 245 168.8 245.3 169.2C244.9 168.6 245 169.2 245.2 169.3C245.1 169.2 245.2 169.1 245.3 169.2C245.2 169.4 244.9 169.2 245.2 169.8C245.1 169.7 244.9 169.6 244.8 169.6C245.3 170.1 245.2 170.1 245.6 170.6C245.6 170.6 245.7 170.5 245.8 170.7C245.8 170.7 245.8 170.7 245.9 170.8C245.7 170.7 245.4 170.5 245.2 170.1C245.1 170 245.3 170.5 245.1 170.2C245 169.8 244.1 168.9 243.2 167.8C242.3 166.7 241.4 165.5 241.2 164.5C240.8 164.1 240.8 164 240.6 163.6C240.7 163.7 240.8 163.8 240.8 163.8C240.7 163.7 240.7 163.6 240.7 163.5C240.4 163.2 240.6 163.4 240.4 162.9C240.3 162.9 240.4 163.1 240.3 163.1C238.8 161 237.6 158.5 236.5 157.1C236.6 156.7 235.8 155.1 235.4 155.2C235.1 154.7 235.2 154.8 235.1 154.3C235 154.3 234.6 153.7 234.7 154.2C234.7 154.2 234.8 154.3 234.7 154.3C235 154.9 235.2 155.2 235.2 155.6C235 156.3 235.4 157.4 235.8 158.6C235.1 157.5 235 157 234.4 156.3C234.3 155.7 234 155.4 233.8 154.9C233.7 154.9 233.5 154.6 233.3 154.4C233.4 154 232.9 153.4 232.8 152.9C232.1 152 232.2 151.2 231.4 150.1C231.3 149.1 230.3 148.3 230.2 146.9C229.6 145.9 229 144.2 228.5 142.3C227.9 140.5 227.4 138.5 226.8 137.3C226.8 137 226.7 136.6 226.7 136.3C226.3 136.1 226.2 134.7 226.2 134.2C225.8 133.3 225.3 130.9 225.2 130.3C225 130 225 128.6 224.8 127.6C224.7 127.6 224.7 127.6 224.7 127.3C224.4 127.3 224.3 127.7 224.2 126.9C224.2 126.5 224.5 126.6 224.2 126.3C224.4 126.3 224.7 127 224.7 126.1C224.6 126.4 224.5 125.4 224.5 125.8C224.6 125.8 224.6 126.3 224.5 126.2C224.5 125.8 224.3 126.1 224.3 125.8C224.3 125.6 224.3 125.6 224.3 125.4C224 124.9 223.7 124.9 223.5 124.2C223.2 124.3 223.3 125.4 223.3 126.3C223.3 127.2 223.3 128 223 127.3C222.9 126.6 222.8 126.6 222.9 126.1C222.5 125.6 222.4 122.7 222.4 121.9C222.4 122 222.3 121.4 222.3 121C222.3 120.8 222.1 121 222.1 120.7V120.4C222.1 120.8 222 121.2 221.9 120.7C222 121.2 221.9 121.3 222 121.9C221.9 121.9 221.9 122.1 221.8 122.1C221.9 123.9 221.6 124.7 221.9 126.5C221.5 126.9 221.3 124.1 220.9 123C221 122.6 220.8 121.5 220.6 121.4C220.6 120.2 220.2 118.3 220.2 116.8C220.1 117 219.9 116.4 219.8 117C219.9 116.5 219.7 116.6 219.8 116.1C219.7 116.4 219.4 116.4 219.3 117.2C219.3 116.5 219.2 116.8 219.2 117.1C219.1 116.6 219.1 116.8 218.9 116.5C218.7 116.8 218.8 117.7 218.7 117.9C218.9 119.3 218.5 119.6 218.6 120.9C218.7 121 218.7 120.7 218.7 120.9C218.5 121.1 218.5 122.2 218.4 122.7C218.5 122.8 218.6 123.4 218.6 123.9C218.5 123.7 218.4 124.5 218.6 124.7C218.5 124.7 218.5 124.7 218.4 124.9C218.5 125.7 218.7 126.2 218.6 126.7C218.6 126.5 218.6 126.3 218.5 126.2C218.6 126.8 218.3 126.7 218.4 127.1C218.2 126.8 218.2 127.1 218.1 127.5C218.2 128.3 218.3 127.9 218.4 128.1C218.3 128.1 218.3 128.2 218.3 128.3C218.2 128.3 218.2 128 218.1 127.9C218 128.4 218.4 128.5 218.3 129C218.1 128.6 218.1 129.1 217.9 129.5C217.9 129.5 218 129.5 218 129.6C217.9 129.7 217.9 130.2 217.8 130.2C217.8 130.7 217.9 130.8 218 131.1C217.8 131.7 218 133 218.1 133.7C217.9 133.4 218.2 134.3 218 134.2C218.1 134.1 218.2 134.7 218.3 134.9C218.1 134.7 218.3 135.3 218.2 135.2C218.1 134.7 218 133.8 217.9 134C218.1 134.3 217.9 134.6 217.9 135.1C218 135.3 218.2 136.3 218 136.3C218.1 136.9 218.2 137.3 218.3 137.8C218.1 137 218.5 138.5 218.4 138.1C218.5 138.6 218.4 139.1 218.4 139.4C218.7 140.1 218.8 141.6 219.2 142.7C219.3 143.2 219.3 143.5 219.4 144.1C219.8 146.1 220.7 148.3 220.7 149.4C221.4 150.5 221.3 151.3 222 152.8C221.9 153 221.9 152.9 221.6 152.8C221.7 153.1 221.7 153.3 221.7 153.5C221.6 153.2 221.5 153.2 221.4 153.3C221.5 153.6 221.5 154 221.7 154.4C221.5 153.9 221.5 153.6 221.5 153.4C221.8 154.1 221.4 153.5 221.7 154.2C221.8 154.2 221.8 154.1 221.9 154.3C221.9 154.4 221.7 154.3 221.8 154.5C222 154.7 222.2 155.3 222 154.7C222.5 155.7 222.1 155.2 222.1 155.5C222.2 155.5 222.3 155.9 222.3 155.9C222 155.4 222.4 156.3 222.4 156.2C222.1 155.9 221.7 154.8 221.4 154.4C221.5 154.4 221.6 154.8 221.6 154.6C221.2 154 221.1 153.3 220.9 152.6C220.6 152.4 220.3 151.1 220.3 150.8C219.9 150.7 220 149.9 219.7 149.3C219.8 149.5 219.9 149.7 219.8 149.8C219.4 148.9 219.7 149.2 219.7 149C219.5 148.5 219.6 148.7 219.5 148.4C219.4 148.4 219.4 148.5 219.3 148.3L218.2 144.5H218.3C218 144.1 218.2 143.7 217.9 143.3C218.1 143.2 217.9 143.2 217.8 143C217.9 142.9 217.6 141.8 217.7 142.5C217.5 141.9 217.7 142.1 217.6 141.7C217.4 141.7 217.6 141.6 217.5 141.4C217.4 141.4 217.4 141.5 217.3 141.3H217.4C217.3 140.7 217.2 141.2 217.2 140.9C217.3 140.3 216.9 139.6 216.9 138.4C216.8 138.4 216.8 138.5 216.7 138.3C216.8 137.9 216.6 137.3 216.5 137.4C216.5 137.2 216.6 137.2 216.6 137C216.4 135.9 216.1 135.2 216 134.2C216 134.4 216.1 134.6 216.1 134.7C216.1 134.3 216 134.1 216 133.8C215.8 134 215.8 132.9 215.5 132.9C215.6 133.4 215.7 133.5 215.8 134.1C215.7 134.3 215.9 135.1 215.7 135.2C215.9 135.4 216 135.9 216.1 136.2C216 136.2 216 135.8 215.9 135.9C216 136.5 216 136.6 216.2 137.1C216.2 137.5 216 137.4 216.1 137.9C216.2 138 216.3 137.9 216.4 138.2C216.4 138.6 216.5 138.4 216.6 138.7C216.4 138.7 216.8 139.9 216.8 140L216.6 140.1C216.7 140.3 216.7 140.7 216.8 140.7C216.8 140.5 216.7 140.3 216.7 140.2C216.8 140.6 216.8 140.5 217 140.8C216.9 140.8 216.9 141.2 217.1 141.6C217.1 141.4 217 141.2 217 141.1C217.1 141.7 217.2 141.6 217.3 141.8C217.1 141.7 217.1 142 217.3 142.3C217.2 142.3 217.3 142.6 217.1 142.5C217.5 143 217.4 144.1 217.7 144.2C217.6 144.3 217.8 144.5 217.8 144.7C217.5 144.3 217.9 145.2 217.9 145.5C217.6 144.4 217.8 145.9 217.9 145.8C217.9 145.6 217.8 145.4 217.8 145.3C218.1 146.3 218.1 145.6 218.3 146.1C218.4 146.6 218 145.7 218.1 146.2C218.2 146.2 218.4 146.7 218.3 146.8C218.1 146.1 218.4 147.2 218.1 146.5C218.2 147 218.3 146.8 218.5 147.4C218.4 147.4 218.2 146.8 218.2 147.3C218.4 147.6 218.5 148.1 218.7 148.3C218.6 148.1 218.6 147.9 218.7 148.1C218.8 148.5 218.7 148.6 218.9 149.1C219 149.1 219 149 219.1 149.2C219.1 149.3 219.2 149.5 219.3 149.7C219.1 149.4 219.5 150.4 219.1 149.6C219.4 150.2 219.1 150.1 219.4 150.7C219.6 150.9 220.1 152.2 220.1 152.5C220 152.2 219.9 152.1 219.8 152.1C220 152.6 220 152.7 220 152.9C220.1 153 220.2 152.9 220.3 153.1C220.3 153.5 220.6 154.2 220.7 154.1C220.7 154.4 220.7 154.7 220.5 154.7C220.4 154.5 219.7 152.7 219.8 152.6C219.4 151.9 219.3 151.4 219 150.8C219.4 151.2 218.7 149.7 219.1 150.1C218.8 149.7 218.8 149.5 218.7 149.7C218.6 149.5 218.6 149.4 218.5 149.3C218.9 149.5 217.9 147.9 218.4 148.5C218.1 147.8 218.3 148.1 218.1 147.6C218 147.6 218 147.7 217.9 147.5C217.8 147 217.6 146.6 217.8 146.4C217.7 146.3 217.6 146.1 217.5 145.7C217.7 146 217.3 144.9 217.3 144.8C217.4 145.2 217 144.5 217.2 145C217.2 145.5 217.6 146.7 218 147.7C217.9 147.7 217.9 147.5 217.8 147.6C218 148.2 218.1 149.1 218.5 149.7C218.4 150 218.8 150.7 218.7 150.7C218.9 151 219 151.7 219.3 152C219.4 152.6 219.6 153.2 219.9 154C220 153.9 220.1 154.1 220.2 154.4C220 154.5 220.6 155.3 220.4 155.4C220.7 155.9 220.6 156 220.9 156.6C221 156.6 221 156.5 221.1 156.7C220.8 156.7 221.9 158.6 221.3 157.8C221.7 158.6 221.9 158.7 221.7 158.8C221.8 159 221.9 158.7 222.1 159.2C222.1 159.6 222.5 160.5 223 161.4C223.1 161.3 223 161.3 223.1 161C222.8 160.5 222.7 160.1 222.6 159.6C222.1 158.9 221.6 157.5 221.7 157C221.5 156.8 221.8 157.7 221.5 157.3C221.5 157 221.4 156.9 221.4 157.2C220.9 156.2 221 155.9 220.6 155.4C220.7 155.3 220.8 154.8 221.1 155.2C221.2 155.6 221.3 155.7 221 155.4C221.2 156 221.3 155.6 221.5 156.2C221.4 156.5 221.9 157.3 222 157.7C222.2 157.8 222.2 157.8 222.3 157.9C222.3 158.2 222.3 158.2 222.1 158C222.3 158.5 222.3 158.1 222.6 158.7C222.5 159.1 223.3 160.1 223.4 160.8C223.6 161 223.7 161.2 224 161.4C223.9 161.4 224 161.6 224 161.7C223.9 161.7 223.7 161.2 223.6 161.2C223.8 161.5 223.9 161.6 224 161.9C224.1 161.9 224.1 161.6 224.3 161.9C224.1 162 224.2 162 224.4 162.2L224.3 162.3C224.6 162.7 224.8 163.4 224.9 163.3C225 163.2 224.7 163 224.5 162.6C224.6 162.6 224.6 162.5 224.6 162.4C224.6 162.5 224.9 162.9 224.8 163C224.7 162.9 224.6 162.7 224.6 162.7C224.8 163 224.9 163.1 225.1 163.5C224.9 163.3 225 163.6 225.2 163.8L225.1 163.9C225.4 164.4 225.6 164.7 225.8 165.2C226.1 165.5 225.8 164.9 225.7 164.7C226.1 165.2 225.8 165.1 226 165.5C226.2 165.6 225.9 165.1 226.1 165.4C226.1 165.5 226.4 166.1 226.4 166.2C226.3 166.2 225.9 165.6 226.1 166C226.3 166.3 226.4 166.2 226.6 166.5C226.5 166.6 226.4 166.3 226.3 166.5C226.6 167 226.5 166.7 226.6 167C226.8 167.2 226.8 166.9 227 167.2C226.9 167.3 226.6 167 226.8 167.5C226.8 167.1 227.6 168.5 227.5 168.2C227.4 168.1 227 167.5 227 167.4C227.3 167.6 227.8 168.5 228 169C228.4 169.9 229.6 171.3 229.7 171.7C229.7 171.6 229.6 171.8 229.7 171.9C229.4 171.7 228.8 170.6 228.7 170.3C228.7 170.5 228.7 170.5 228.5 170.3C228.7 170.7 229 171.2 229.4 171.6C229.5 172 229.6 172 229.7 172.4C229.8 172.2 230.2 172.6 230.2 172.5C230 172.1 230 172.5 229.8 172.2C229.9 171.9 230.4 172.5 230.5 172.9C230.4 172.9 230.3 172.7 230.4 173C230.6 172.9 230.9 173.6 231.1 173.7C231 173.7 231.1 173.9 231.1 173.9C231.1 173.7 230.6 173.4 230.8 173.3C230.5 173 230.3 172.6 230.1 172.6C230.4 173.2 230.7 173.5 231.1 174C231.1 174 231 174 230.9 173.9C231.2 174.3 232.3 175.7 231.8 174.8C231.7 174.8 231.9 175.1 231.7 174.9C231.4 174.5 231.2 174.2 231.3 174C231.8 174.7 231.9 174.8 232.2 175.3C232.5 175.5 232.2 175.1 232.4 175.4C232.4 175.6 232.6 175.8 232.7 175.9C232.7 175.9 232.6 175.8 232.5 175.8C232.8 176.2 233.2 176.5 233.3 176.8C233.1 176.8 233.2 176.9 233 176.8C233.4 177.2 233.3 177.3 233.1 177.1C233.7 177.8 234.2 178.3 234.3 178.6C234.3 178.3 234.7 178.9 234.8 178.8C234.5 178.5 234.4 178.3 234.2 178C234.6 178.6 234.2 177.8 234.5 178.2C234.7 178.4 234.9 178.9 235.1 179C235 178.9 235 178.8 235.1 179C235.3 179.4 235.3 179.4 235.1 179.4C235 179.1 234.7 178.9 234.5 178.7C234.8 179.3 234.3 178.9 234.6 179.2C234.4 178.8 235.3 179.9 234.8 179.2C235.2 179.6 234.9 179.5 235.1 179.8C235 179.5 235.8 180.4 235.5 180.3C235.4 180.2 235.3 180 235.2 179.9C235.4 180.3 236.3 181.1 236.1 181.3C236.7 181.9 236.7 182.2 237.2 182.7C236.8 182.4 236.7 182.5 236.2 182C236.5 182.1 235.9 181.8 235.9 181.6C235.9 181.7 235.7 181.5 235.6 181.4C235.7 181.6 236 181.8 236 181.9C235.8 181.7 235.6 181.4 235.5 181.4C235.7 181.8 235.9 181.8 236 182.1C236.1 182.1 236.1 182 236.2 182.1C236.1 182.2 236.6 182.6 236.1 182.2C237.6 184.2 239.8 187 241.8 188.9C241.8 189 242.1 189.2 241.9 189.2C245.5 192.9 249.7 197 255.1 200.9C265.3 208.2 277.4 214.2 290.7 217.3C299.3 219.3 308.1 220.1 317.1 220C327.6 219.8 338 218.2 348 215C358 211.8 367.5 207.1 376.1 200.7C381.2 196.9 386.3 192.3 390.5 187.6C396.7 180.8 402.4 172.7 406.8 163.9C411.2 155.1 414.4 145.5 416.1 136.1C416.1 136.1 416 136.1 416 135.9C417 130.6 417.7 125.1 417.7 119.6L417.8 119.8C418 118.1 417.8 113.6 417.7 111.4C417.5 104.5 416.4 96.6 414.3 88.6C412.2 80.7 408.9 72.7 405 65.6C404.9 65.5 404.8 65.5 404.7 65.4C404.8 65.4 404.7 65.3 404.7 65.2C403.7 63.5 402.6 61.4 401.6 59.9C401.5 59.9 401.5 60 401.4 59.8C401.5 59.8 401.3 59.6 401.3 59.5C399.2 56.2 396.8 52.8 394.2 49.6C391.6 46.4 389 43.5 386.7 41.3C386.3 40.8 385.8 40.4 385.7 40.1C385.2 39.7 385.1 39.7 384.6 39.3C384.8 39.2 384.7 39 384.9 38.8C384.6 38.3 383.2 37 383.5 37C383 36.5 382.1 35.8 381.9 35.5L382.9 36.4C384 37 385.5 38.3 386.8 39.5C390.1 42.1 393.4 45.2 396.4 48.6C398.5 50.8 401.1 53.6 403.2 56.6C404.8 58.5 405.8 59.9 407.2 62C409.6 65.7 411.8 69.4 413.7 73.2C415.6 77 417.3 81.1 418.8 85.5C419.4 87 420.1 89.3 420.4 91C421.5 94.2 422 97.8 422.8 101C422.8 102.1 423.3 103 423.3 104.6C423.5 105.3 423.8 106.6 423.7 107.7C424.2 109.7 424.4 112.7 424.9 114.2C425.3 114.3 425.6 116.1 425.7 118.4C425.8 120.7 425.8 123.3 425.9 125C426.3 124.9 426.8 124.7 426.8 126.6C427 126.4 427.2 126.3 427.4 126.3C427.4 125.8 427.5 125.9 427.5 125.6C427.3 125.5 427.5 126 427.4 126C427.2 125.6 427.2 124.9 427.3 124.1C427.6 123.5 428.3 123.6 428 124.5C428.1 124.6 428.1 124.7 428.1 124.5C428.1 128.1 427.8 131.1 427.7 134.1C428.1 134 427.4 137.8 428.1 136.9C428 137.6 428.4 137.2 428.2 138.3C428.5 137.6 428.8 137.8 428.9 138.4C429.5 136.3 430 133.6 430.3 131C430.4 131.1 430.4 130.8 430.5 130.6C430.8 130.7 430.8 131.8 430.9 132.4C431.4 131.7 431.3 128.7 431.6 126.2C431.8 124.8 432 124.8 432 123.5C432.3 123.5 432.5 122.3 432.6 121.4C432.9 121.9 432.8 123.1 433 123C433.1 120.2 433.2 115.8 432.9 112.7C432.9 112.2 433 111.9 433.1 111.7C433.4 112.3 433.7 112.9 433.8 114.2C433.7 114.2 433.7 113.9 433.7 114.4C433.7 114.5 433.9 114.7 434 115C434.2 112.3 434.1 109 434.3 107.6ZM159.6 2.6389e-05C149.9 2.6389e-05 142.5 7.40003 142.5 17.4L142.8 152.2L35.1 11.3C29.7 3.90003 25.8 2.6389e-05 18 2.6389e-05C8.7 2.6389e-05 1.3 7.40003 1.3 16.8V202.5C1.3 212.5 8.7 219.9 18.4 219.9C28.1 219.9 35.5 212.5 35.5 202.5V67.4L143.8 210.2C148.3 216 152.8 219.9 159.9 219.9C169.6 219.9 176.7 212.5 176.7 203.1V17.4C176.7 7.40003 169.3 2.6389e-05 159.6 2.6389e-05ZM620.7 193.8L543.6 11.6C540.4 3.90003 534.9 2.6389e-05 527.2 2.6389e-05C519.8 2.6389e-05 514.3 3.90003 511.1 11.6L434 193.8C432.1 197.7 431.4 200.9 431.4 203.5C431.4 212.5 438.8 219.9 448.2 219.9C455.9 219.9 461.4 215.7 464.3 208L476.9 178H577.2L590.4 208C593.6 215.7 598.8 219.9 606.5 219.9C615.9 219.9 623.3 212.5 623.3 203.5C623.3 200.9 622.3 197.6 620.7 193.8Z" fill="black"/>
</g>
<defs>
<clipPath id="clip0">
<rect width="623.3" height="304.5" fill="white"/>
</clipPath>
</defs>
</svg>
